<?xml version="1.0" encoding="utf-8"?>
<!-- Generator: Adobe Illustrator 27.5.0, SVG Export Plug-In . SVG Version: 6.00 Build 0)  -->
<svg version="1.1" xmlns="http://www.w3.org/2000/svg" xmlns:xlink="http://www.w3.org/1999/xlink" x="0px" y="0px"
	 viewBox="0 0 500 500" style="enable-background:new 0 0 500 500;" xml:space="preserve">
<g id="BACKGROUND">
	<rect x="0.001" style="fill:#FFFFFF;" width="500" height="500"/>
</g>
<g id="OBJECTS">
	<g>
		<g>
			<path style="fill:#DFF1EA;" d="M265.636,50.364c-21.123-0.199-149.054-2.178-152.815,33.473
				c-3.604,34.146,45.967,21.645,46.45,36.796c0.514,15.916-8.939,20.522-35.325,19.513c-11.435-0.438-47.523,3.606-48.099,26.386
				c-0.576,22.653,39.723,19.793,37.729,38.589c-1.156,21.363-31.763,26.01-43.819,31.658c-13.1,6.852-37.209,18.149-31.67,42.399
				c7.291,28.121,53.587,23.064,71.025,26.528c11.646,1.891,48.679,5.156,43.412,30.076c-2.768,14.976-33.167,15.85-27.355,35.065
				c5.881,17.964,58.892,21.514,69.631,22.096c44.576,2.411,142.461,6.354,186.058-12.035c16.028-6.693,30.177-14.753,28.536-38.788
				c-0.796-21.467-12.375-24.613,7.126-41.202c12.327-10.677,35.928-9.818,34.532-40.982c-0.754-16.813-43.757-23.794-42.804-41.387
				c1.496-27.646,54.286-4.171,54.479-53.072c0.118-30.523-95.92-13.447-94.94-43.64c-1.295-12.253,19.845-17.454,18.936-31.015
				C387.22,69.105,362.345,53.035,265.636,50.364z"/>
		</g>
		<path style="fill:#EAF9F3;" d="M181.833,271.78c-0.104,0.064-0.229,0.102-0.384,0.102c-24.51,0-49.02,0-73.529,0
			c-0.326,0-0.653-0.228-0.728-0.553c-0.804-3.496,3.24-6.244,5.971-4.902c0.385-1.777,2.145-3.003,3.984-2.775
			c-1.01-3.192,0.387-6.425,3.74-7.977c3.084-1.433,5.956-0.254,7.785,2.08c1.053-5.414,5.723-10.093,11.409-10.485
			c3.091-0.209,6.363,0.661,8.768,2.688c2.4,2.015,3.182,4.222,3.782,6.926c1.796-2.579,4.703-3.798,8.046-2.761
			c3.301,1.024,3.718,4.395,3.565,7.424c2.66-2.208,5.858-3.28,9.329-1.192c2.882,1.733,3.505,4.52,3.625,7.547
			c2.368-1.41,4.819-0.012,5.009,3.228C182.225,271.46,182.061,271.676,181.833,271.78z"/>
		<path style="fill:#DFF1EA;" d="M386.944,119.396c0,14.095,38.239,16.694,40.225,0C429.155,102.699,386.944,98.234,386.944,119.396
			z"/>
		<path style="fill:#DFF1EA;" d="M78.208,336.191c0,14.096,47.321,16.821,49.036,0C129.36,315.453,78.208,311.508,78.208,336.191z"
			/>
		<path style="fill:#DFF1EA;" d="M354.009,415.703c0,16.717,56.121,19.949,58.155,0C414.672,391.109,354.009,386.43,354.009,415.703
			z"/>
		<path style="fill:#DFF1EA;" d="M74.208,120.39c0,9.203,26.085,10.983,27.03,0C102.405,106.852,74.208,104.276,74.208,120.39z"/>
		<path style="fill:#FFFFFF;" d="M223.681,284.286c0.778-3.914-5.011-7.511-9.472-6.068c0.728-2.684-0.102-5.118-4.056-6.319
			c-1.648-0.5-3.628-0.494-5.367-0.024c3.119-6.218,0.217-13.298-9.423-14.761c-10.48-1.593-22.112,3.551-24.192,11.828
			c-8.523-8.375-26.583,1.659-21.252,11.298c-3.293-0.524-6.686,1.341-6.887,4.111c-3.334-1.133-5.961,2.266-3.904,5.193
			c0.149,0.214,0.457,0.348,0.764,0.348c29.652,0,59.306,0,88.957,0c0.227,0,0.405-0.058,0.541-0.145
			c0.141-0.081,0.254-0.202,0.312-0.37C230.715,286.492,226.984,283.755,223.681,284.286z"/>
		<path style="fill:#FFFFFF;" d="M224.601,350.641c0.346-1.731-2.216-3.321-4.188-2.684c0.323-1.188-0.045-2.265-1.793-2.795
			c-0.729-0.22-1.603-0.218-2.373-0.011c1.379-2.749,0.095-5.88-4.168-6.526c-4.635-0.705-9.777,1.571-10.698,5.23
			c-3.77-3.705-11.754,0.733-9.396,4.995c-1.457-0.232-2.959,0.593-3.047,1.818c-1.475-0.5-2.636,1.003-1.725,2.296
			c0.065,0.095,0.201,0.154,0.337,0.154c13.112,0,26.225,0,39.337,0c0.099,0,0.18-0.024,0.24-0.063
			c0.062-0.037,0.111-0.09,0.136-0.165C227.711,351.616,226.063,350.404,224.601,350.641z"/>
		<path style="fill:#FFFFFF;" d="M383.402,190.248c0.078,0.047,0.171,0.075,0.286,0.075c18.231,0,36.464,0,54.695,0
			c0.242,0,0.485-0.17,0.541-0.412c0.599-2.6-2.41-4.644-4.441-3.646c-0.286-1.322-1.596-2.234-2.964-2.064
			c0.751-2.374-0.288-4.778-2.782-5.934c-2.294-1.065-4.431-0.189-5.791,1.547c-0.783-4.027-4.257-7.508-8.486-7.799
			c-2.3-0.157-4.733,0.491-6.522,1.998c-1.785,1.499-2.367,3.142-2.814,5.152c-1.336-1.918-3.498-2.825-5.985-2.053
			c-2.455,0.762-2.766,3.27-2.652,5.522c-1.979-1.642-4.357-2.44-6.939-0.887c-2.144,1.289-2.607,3.362-2.696,5.613
			c-1.762-1.048-3.585-0.008-3.726,2.401C383.111,190.01,383.233,190.17,383.402,190.248z"/>
		<path style="fill:#FFFFFF;" d="M240.831,92.03c0.055,0.032,0.115,0.052,0.193,0.052c12.322,0,24.642,0,36.963,0
			c0.164,0,0.328-0.115,0.365-0.279c0.405-1.756-1.628-3.137-3.002-2.463c-0.192-0.893-1.076-1.51-2.003-1.396
			c0.509-1.604-0.192-3.229-1.879-4.009c-1.55-0.719-2.992-0.127-3.913,1.046c-0.529-2.721-2.878-5.074-5.736-5.27
			c-1.555-0.106-3.198,0.332-4.407,1.35c-1.206,1.014-1.598,2.123-1.901,3.482c-0.902-1.296-2.364-1.909-4.045-1.388
			c-1.661,0.514-1.87,2.209-1.792,3.732c-1.339-1.11-2.944-1.648-4.691-0.599c-1.449,0.871-1.761,2.271-1.821,3.793
			c-1.19-0.709-2.421-0.005-2.518,1.623C240.635,91.87,240.717,91.978,240.831,92.03z"/>
		<g>
			<path style="fill:#82B7BC;" d="M328.397,412.74c-0.005-0.143-0.052-0.257-0.113-0.354c-0.103-0.209-0.299-0.368-0.605-0.363
				c-9.308,0.148-18.612,0.302-27.922,0.451c-0.378,0.006-0.732,0.32-0.716,0.717c0.224,5.382-0.234,10.926,0.655,16.257
				c0.829,4.969,6.278,5.35,10.488,5.594c5.397,0.313,13.102,0.504,16.204-2.352C329.978,429.38,328.583,418.012,328.397,412.74z"/>
			<g>
				<path style="fill:#A3D0D8;" d="M303.894,423.253c-4.224,0-5.189-3.978-5.2-4.021c-0.054-0.231,0.092-0.461,0.322-0.515
					c0.235-0.049,0.464,0.092,0.518,0.322c0.038,0.164,1.018,4.067,5.6,3.235c3.049-0.554,3.278-6.938,3.28-7.001
					c0.009-0.215,0.166-0.39,0.378-0.415c0.202-0.032,0.408,0.104,0.466,0.308c0.08,0.277,0.164,0.638,0.258,1.054
					c0.353,1.546,0.888,3.885,2.003,4.861c1.397,1.222,4.608,1.367,6.261,0.635c1.717-0.672,2.55-3.077,2.486-5.259
					c-0.045-0.313-0.074-0.637-0.088-0.965c-0.007-0.227,0.163-0.423,0.391-0.443c0.217-0.021,0.431,0.136,0.467,0.36
					c0.049,0.315,0.077,0.637,0.091,0.965c0.356,2.34,1.733,4.295,3.476,4.818c1.387,0.414,2.733-0.177,3.787-1.662
					c0.139-0.194,0.405-0.238,0.602-0.101c0.191,0.138,0.237,0.406,0.099,0.6c-1.27,1.783-2.995,2.509-4.734,1.984
					c-1.482-0.442-2.714-1.678-3.45-3.32c-0.399,1.727-1.331,3.245-2.794,3.817c-1.912,0.849-5.466,0.697-7.158-0.782
					c-1.007-0.881-1.58-2.532-1.962-4.002c-0.404,2.14-1.375,4.972-3.703,5.395C304.787,423.212,304.323,423.253,303.894,423.253z"
					/>
			</g>
			<g>
				<path style="fill:#709DA0;" d="M313.076,410.136c-2.955-0.003-12.999,0.132-14.105,2.396
					c-1.472,3.184,14.868,2.934,18.025,2.829C331.956,414.87,333.74,409.386,313.076,410.136z"/>
			</g>
			<g>
				<path style="fill:#A3D0D8;" d="M313.076,409.564c-1.711,0.002-16.046-0.247-14.741,3.633c0.638,1.895,3.674,2.064,5.283,2.29
					c3.548,0.494,7.173,0.515,10.75,0.497c3.169-0.016,6.332-0.182,9.458-0.741c1.396-0.249,4.429-0.73,5.049-2.356
					C330.471,408.689,314.209,409.528,313.076,409.564c-0.739,0.022-0.741,1.169,0,1.146c3.266-0.099,6.523-0.104,9.779,0.209
					c0.573,0.057,6.262,0.815,4.396,2.034c-3.442,2.245-8.936,1.847-12.883,1.885c-4.398,0.04-9.097,0.12-13.374-1.023
					c-2.065-0.554-0.668-1.749,0.703-2.146c1.438-0.417,2.977-0.547,4.462-0.689c2.293-0.223,4.612-0.265,6.917-0.27
					C313.816,410.709,313.816,409.563,313.076,409.564z"/>
			</g>
			<g>
				<g>
					<path style="fill:#82B7BC;" d="M328.597,378.463c-0.188,11.308-0.593,22.618-0.743,33.923c-0.008,0.554,0.854,0.554,0.859,0
						c0.152-11.305,0.557-22.615,0.742-33.923C329.466,377.909,328.604,377.909,328.597,378.463L328.597,378.463z"/>
				</g>
				<g>
					<path style="fill:#82B7BC;" d="M296.843,378.27c0.347,11.45,0.498,22.859,1.698,34.263c0.058,0.544,0.919,0.548,0.86,0
						c-1.2-11.403-1.353-22.813-1.699-34.263C297.685,377.716,296.824,377.715,296.843,378.27L296.843,378.27z"/>
				</g>
				<g>
					<path style="fill:#82B7BC;" d="M312.336,380.185c0.965,11.543-0.244,23.122,0.764,34.659c0.05,0.548,0.909,0.554,0.863,0
						c-1.009-11.537,0.197-23.116-0.765-34.659C313.152,379.637,312.291,379.632,312.336,380.185L312.336,380.185z"/>
				</g>
			</g>
			<path style="fill:#A3D0D8;" d="M372.886,279.951c-3.606-9.148-10.257-18.263-20.667-20.143c-0.079-0.013-0.152-0.015-0.225-0.019
				c-0.059-0.01-0.108-0.027-0.169-0.033c-7.772-0.789-12.295,6.956-15.025,12.891c-4.932,10.721-7.095,22.725-9.027,34.251
				c-3.797,22.67-7.72,47.509-1.073,69.979c0.363,1.237,2.021,1.402,2.707,0.347c7.109-10.927,21.78-14.672,31.157-23.392
				c9.8-9.111,14.779-22.429,16.373-35.315C378.563,305.378,377.787,292.376,372.886,279.951z"/>
			<path style="fill:#BCE0E8;" d="M295.504,316.621c-3.452-18.651-11.598-37.296-21.001-53.825
				c-0.328-0.574-0.857-0.761-1.365-0.693c-0.212,0.006-0.434,0.057-0.66,0.175c-9.45,4.86-14.531,14.175-17.713,23.788
				c-3.417,10.319-5.206,22.898-3.618,33.701c2.053,13.982,9.954,26.325,20.356,35.881c8.524,7.836,19.134,12.914,26.745,21.871
				c0.85,0.999,2.538,0.159,2.526-1.025C300.576,356.522,299.141,336.278,295.504,316.621z"/>
			<path style="fill:#BCE0E8;" d="M340.455,248.997c-8.35-4.556-18.106-5.327-27.335-3.503c-0.571,0.111-0.891,0.453-1.014,0.857
				c-5.578,7.96-6.396,19.092-7.215,28.397c-1.287,14.64-0.939,29.432-0.288,44.093c0.877,19.765,2.539,39.566,5.058,59.198
				c0.1,0.783,0.597,1.448,1.48,1.448c5.662,0,11.324,0,16.985,0c0.505,0,1.036-0.271,1.279-0.717
				c15.683-28.8,20.074-63.442,22.698-95.554c0.6-7.315,1.08-14.668,1.201-22.01C353.387,256.36,343.989,250.926,340.455,248.997z"
				/>
			<path style="fill:#A3D0D8;" d="M316.932,251.175c-2.659-15.326-29.722-3.099-36.883,2.141c-6.62,4.843-8.415,9.425-8.84,16.824
				c-0.705,12.325-0.045,24.728,1.524,36.966c2.152,16.813,6.414,33.541,13.248,49.131c2.082,4.748,4.361,9.388,6.855,13.943
				c1.129,2.056,3.625,8.604,6.063,9.258c3.586,0.967,8.518,0.051,12.242,0.051c0.742,0,1.192-0.436,1.358-0.973
				c0.06-0.143,0.107-0.298,0.123-0.476c2.336-27.95,4.188-55.973,5.148-84.002C318.252,279.978,319.353,265.127,316.932,251.175z"
				/>
			<g>
				<path style="fill:#82B7BC;" d="M296.456,380.135c10.96,2.042,22.526,1.908,33.477,0c3.134-0.543,1.803-4.736-1.315-4.193
					c-10.025,1.744-20.803,1.867-30.845,0C294.655,375.36,293.331,379.556,296.456,380.135L296.456,380.135z"/>
			</g>
		</g>
		<g>
			<path style="fill:#8CA8AF;" d="M195.323,107.502c-0.002-0.062-0.021-0.111-0.048-0.153c-0.046-0.091-0.131-0.159-0.263-0.158
				c-4.032,0.065-8.064,0.13-12.098,0.196c-0.163,0.003-0.316,0.139-0.311,0.311c0.099,2.331-0.101,4.732,0.285,7.043
				c0.359,2.153,2.72,2.317,4.543,2.423c2.338,0.135,5.676,0.219,7.02-1.02C196.008,114.71,195.405,109.785,195.323,107.502z"/>
			<g>
				<path style="fill:#A9C0C9;" d="M184.708,112.056c-1.832,0-2.249-1.723-2.254-1.742c-0.023-0.1,0.039-0.199,0.14-0.223
					c0.103-0.021,0.199,0.04,0.222,0.139c0.02,0.072,0.443,1.763,2.427,1.402c1.322-0.239,1.422-3.005,1.423-3.033
					c0.003-0.093,0.071-0.169,0.163-0.179c0.088-0.013,0.177,0.044,0.203,0.133c0.033,0.119,0.07,0.277,0.11,0.457
					c0.151,0.67,0.384,1.684,0.867,2.107c0.606,0.529,1.998,0.592,2.712,0.274c0.744-0.291,1.105-1.333,1.078-2.278
					c-0.02-0.137-0.03-0.277-0.039-0.418c-0.003-0.099,0.072-0.184,0.171-0.192c0.094-0.009,0.188,0.059,0.202,0.157
					c0.02,0.136,0.033,0.275,0.037,0.417c0.156,1.015,0.752,1.86,1.509,2.086c0.6,0.181,1.183-0.075,1.64-0.719
					c0.061-0.083,0.176-0.103,0.262-0.043c0.082,0.059,0.102,0.176,0.042,0.26c-0.55,0.772-1.298,1.086-2.05,0.86
					c-0.644-0.192-1.177-0.728-1.495-1.439c-0.174,0.749-0.578,1.406-1.212,1.654c-0.828,0.368-2.368,0.302-3.102-0.339
					c-0.436-0.381-0.683-1.097-0.848-1.734c-0.178,0.926-0.598,2.153-1.605,2.337C185.093,112.039,184.892,112.056,184.708,112.056z
					"/>
			</g>
			<g>
				<path style="fill:#6B7D7E;" d="M188.685,106.374c-1.282-0.001-5.632,0.057-6.11,1.038c-0.639,1.379,6.442,1.271,7.81,1.225
					C196.865,108.425,197.636,106.047,188.685,106.374z"/>
			</g>
			<g>
				<path style="fill:#A9C0C9;" d="M188.685,106.126c-0.742,0.001-6.952-0.107-6.387,1.574c0.277,0.822,1.592,0.894,2.289,0.991
					c1.538,0.215,3.109,0.224,4.657,0.216c1.372-0.007,2.744-0.08,4.098-0.322c0.606-0.108,1.918-0.317,2.187-1.02
					C196.22,105.746,189.177,106.11,188.685,106.126c-0.319,0.01-0.322,0.507,0,0.497c1.414-0.043,2.825-0.046,4.236,0.089
					c0.248,0.025,2.713,0.354,1.905,0.882c-1.491,0.973-3.873,0.799-5.582,0.816c-1.906,0.018-3.94,0.053-5.794-0.443
					c-0.895-0.241-0.289-0.758,0.305-0.93c0.624-0.181,1.29-0.237,1.933-0.298c0.994-0.096,1.998-0.115,2.997-0.116
					C189.006,106.622,189.006,106.124,188.685,106.126z"/>
			</g>
			<g>
				<g>
					<path style="fill:#8CA8AF;" d="M195.409,92.652c-0.082,4.898-0.257,9.799-0.322,14.696c-0.004,0.24,0.369,0.24,0.371,0
						c0.068-4.897,0.241-9.798,0.325-14.696C195.786,92.412,195.412,92.412,195.409,92.652L195.409,92.652z"/>
				</g>
				<g>
					<path style="fill:#8CA8AF;" d="M181.651,92.568c0.151,4.96,0.217,9.903,0.737,14.843c0.024,0.236,0.396,0.237,0.372,0
						c-0.52-4.94-0.583-9.883-0.735-14.843C182.017,92.329,181.644,92.329,181.651,92.568L181.651,92.568z"/>
				</g>
				<g>
					<path style="fill:#8CA8AF;" d="M188.366,93.398c0.415,5-0.106,10.018,0.33,15.016c0.023,0.236,0.394,0.239,0.374,0
						c-0.437-4.999,0.086-10.016-0.331-15.016C188.718,93.16,188.347,93.157,188.366,93.398L188.366,93.398z"/>
				</g>
			</g>
			<path style="fill:#A9C0C9;" d="M214.597,49.974c-1.563-3.964-4.443-7.913-8.955-8.726c-0.033-0.005-0.064-0.006-0.097-0.007
				c-0.025-0.005-0.048-0.013-0.073-0.015c-3.366-0.342-5.326,3.013-6.51,5.585c-2.134,4.645-3.073,9.845-3.911,14.839
				c-1.645,9.82-3.344,20.582-0.464,30.317c0.157,0.534,0.875,0.606,1.172,0.149c3.081-4.734,9.436-6.356,13.499-10.134
				c4.246-3.947,6.403-9.717,7.095-15.3C217.054,60.989,216.719,55.356,214.597,49.974z"/>
			<path style="fill:#C7E0E8;" d="M181.072,65.86c-1.495-8.081-5.024-16.158-9.099-23.318c-0.141-0.249-0.371-0.331-0.59-0.301
				c-0.093,0.002-0.189,0.024-0.286,0.075c-4.095,2.106-6.296,6.142-7.675,10.306c-1.48,4.471-2.254,9.92-1.566,14.6
				c0.889,6.057,4.312,11.404,8.82,15.544c3.69,3.395,8.287,5.595,11.584,9.476c0.368,0.434,1.102,0.07,1.097-0.445
				C183.269,83.147,182.646,74.377,181.072,65.86z"/>
			<path style="fill:#C7E0E8;" d="M200.547,36.563c-3.618-1.974-7.845-2.308-11.843-1.518c-0.248,0.048-0.388,0.197-0.44,0.372
				c-2.417,3.448-2.77,8.271-3.125,12.302c-0.557,6.342-0.406,12.75-0.124,19.103c0.379,8.563,1.099,17.141,2.191,25.646
				c0.043,0.339,0.258,0.628,0.642,0.628c2.453,0,4.905,0,7.358,0c0.219,0,0.448-0.118,0.554-0.311
				c6.794-12.478,8.697-27.485,9.834-41.397c0.26-3.17,0.468-6.355,0.52-9.535C206.148,39.753,202.077,37.398,200.547,36.563z"/>
			<path style="fill:#A9C0C9;" d="M190.356,37.506c-1.152-6.639-12.877-1.341-15.979,0.928c-2.868,2.098-3.647,4.083-3.829,7.29
				c-0.306,5.339-0.022,10.713,0.659,16.014c0.933,7.283,2.779,14.531,5.74,21.284c0.901,2.058,1.888,4.067,2.97,6.041
				c0.487,0.892,1.569,3.727,2.624,4.011c1.557,0.42,3.692,0.023,5.306,0.023c0.321,0,0.516-0.19,0.588-0.422
				c0.026-0.062,0.049-0.13,0.054-0.206c1.012-12.109,1.813-24.249,2.23-36.392C190.927,49.985,191.404,43.551,190.356,37.506z"/>
			<g>
				<path style="fill:#8CA8AF;" d="M181.485,93.377c4.748,0.885,9.758,0.827,14.502,0c1.358-0.235,0.782-2.052-0.568-1.817
					c-4.344,0.755-9.011,0.809-13.363,0C180.706,91.308,180.131,93.126,181.485,93.377L181.485,93.377z"/>
			</g>
		</g>
		<rect x="159.581" y="215.014" style="fill:none;" width="207.839" height="26.718"/>
		
			<text transform="matrix(1 0 0 1 182.0571 227.0018)" style="fill:#FFFFFF; font-family:'Rubik-Medium'; font-size:16.8848px; letter-spacing:2;">PAGE NOT FOUND</text>
		<rect x="134.637" y="137.589" style="fill:none;" width="257.726" height="69.619"/>
		<text transform="matrix(1 0 0 1 190.1304 205.286)" style="fill:#FFFFFF; font-family:'Rubik-Medium'; font-size:95.3496px;">404</text>
		<rect x="216.373" y="106.599" style="fill:none;" width="94.255" height="21.35"/>
		
			<text transform="matrix(1 0 0 1 228.1968 125.6385)" style="fill:#A9C0C9; font-family:'Rubik-Medium'; font-size:26.8171px; letter-spacing:1;">Oops!</text>
	</g>
</g>
<g id="DESIGNED_BY_FREEPIK">
	<g id="XMLID_76_">
		<g>
			<g id="XMLID_486_">
				<path id="XMLID_507_" style="fill:#C2C2C2;" d="M181.087,472.134c-0.246,0-0.435,0.085-0.567,0.255
					c-0.133,0.17-0.199,0.421-0.199,0.753v2.393c-0.304-0.332-0.617-0.579-0.937-0.739c-0.321-0.159-0.715-0.24-1.182-0.24
					c-0.807,0-1.458,0.283-1.953,0.849c-0.494,0.566-0.742,1.355-0.742,2.369c0,0.479,0.063,0.923,0.188,1.335
					c0.124,0.412,0.307,0.77,0.549,1.074c0.241,0.305,0.526,0.539,0.857,0.703c0.33,0.164,0.689,0.246,1.078,0.246
					c0.293,0,0.563-0.04,0.809-0.122c0.247-0.08,0.477-0.199,0.689-0.356c0.212-0.155,0.426-0.358,0.644-0.607v0.16
					c0,0.297,0.072,0.525,0.217,0.685c0.145,0.16,0.328,0.24,0.549,0.24c0.226,0,0.409-0.077,0.552-0.231
					c0.143-0.154,0.213-0.386,0.213-0.694v-7.147c0-0.305-0.066-0.534-0.199-0.69C181.52,472.212,181.332,472.134,181.087,472.134z
					 M180.021,478.975c-0.141,0.306-0.329,0.533-0.563,0.682c-0.236,0.148-0.496,0.223-0.781,0.223c-0.28,0-0.539-0.078-0.777-0.236
					c-0.237-0.154-0.424-0.387-0.561-0.695c-0.136-0.31-0.205-0.683-0.205-1.122c0-0.415,0.063-0.78,0.193-1.096
					c0.128-0.314,0.31-0.556,0.543-0.724c0.233-0.168,0.499-0.252,0.795-0.252c0.285,0,0.547,0.082,0.787,0.245
					c0.239,0.165,0.429,0.402,0.569,0.713c0.141,0.311,0.21,0.682,0.21,1.113C180.232,478.283,180.163,478.667,180.021,478.975z"/>
				<path id="XMLID_504_" style="fill:#C2C2C2;" d="M188.452,478.054c0.233-0.122,0.35-0.385,0.35-0.793
					c0-0.438-0.113-0.87-0.338-1.294c-0.225-0.423-0.564-0.769-1.019-1.035c-0.453-0.268-0.996-0.399-1.628-0.399
					c-0.487,0-0.93,0.077-1.33,0.233c-0.4,0.156-0.737,0.381-1.01,0.674c-0.272,0.293-0.48,0.643-0.623,1.054
					c-0.143,0.409-0.213,0.853-0.213,1.332c0,1.017,0.289,1.822,0.867,2.415c0.577,0.593,1.387,0.891,2.427,0.891
					c0.456,0,0.858-0.06,1.207-0.178c0.352-0.12,0.641-0.268,0.874-0.448c0.231-0.181,0.404-0.368,0.519-0.565
					c0.115-0.196,0.172-0.366,0.172-0.514c0-0.166-0.052-0.294-0.155-0.386c-0.103-0.09-0.237-0.137-0.403-0.137
					c-0.154,0-0.273,0.036-0.356,0.107c-0.203,0.19-0.366,0.34-0.492,0.451s-0.265,0.216-0.415,0.313
					c-0.15,0.098-0.305,0.167-0.466,0.214c-0.16,0.044-0.337,0.067-0.531,0.067c-0.289,0-0.553-0.07-0.792-0.213
					c-0.239-0.143-0.432-0.355-0.576-0.636c-0.144-0.281-0.219-0.605-0.222-0.974h3.168
					C187.89,478.234,188.219,478.174,188.452,478.054z M184.297,477.315c0.055-0.547,0.212-0.96,0.472-1.238
					c0.259-0.28,0.59-0.418,0.994-0.418c0.423,0,0.764,0.137,1.024,0.411c0.259,0.275,0.409,0.69,0.448,1.245H184.297z"/>
				<path id="XMLID_503_" style="fill:#C2C2C2;" d="M193.878,477.617c-0.319-0.17-0.729-0.316-1.231-0.439
					c-0.424-0.104-0.756-0.19-0.997-0.261c-0.242-0.07-0.434-0.161-0.576-0.27c-0.143-0.108-0.213-0.247-0.213-0.418
					c0-0.186,0.097-0.342,0.291-0.465c0.194-0.126,0.437-0.188,0.73-0.188c0.286,0,0.511,0.047,0.677,0.142
					c0.166,0.096,0.31,0.223,0.433,0.381c0.151,0.189,0.284,0.331,0.401,0.426c0.116,0.096,0.258,0.144,0.424,0.144
					c0.23,0,0.407-0.061,0.532-0.178c0.124-0.119,0.187-0.271,0.187-0.457c0-0.171-0.058-0.345-0.175-0.523
					c-0.116-0.178-0.286-0.34-0.51-0.485c-0.223-0.147-0.502-0.265-0.837-0.351c-0.333-0.088-0.71-0.131-1.13-0.131
					c-0.535,0-0.99,0.085-1.367,0.259c-0.378,0.172-0.665,0.402-0.859,0.69c-0.194,0.289-0.291,0.597-0.291,0.92
					c0,0.364,0.105,0.671,0.315,0.921c0.21,0.249,0.489,0.45,0.839,0.602c0.351,0.152,0.804,0.298,1.362,0.435
					c0.494,0.12,0.849,0.244,1.066,0.375c0.216,0.131,0.323,0.338,0.323,0.622c0,0.187-0.104,0.352-0.311,0.497
					c-0.208,0.144-0.474,0.216-0.798,0.216c-0.4,0-0.715-0.07-0.947-0.213c-0.232-0.144-0.431-0.357-0.597-0.647
					c-0.082-0.149-0.169-0.267-0.261-0.351c-0.091-0.082-0.221-0.124-0.39-0.124c-0.194,0-0.355,0.064-0.481,0.19
					c-0.128,0.126-0.191,0.278-0.191,0.456c0,0.27,0.099,0.537,0.296,0.805c0.198,0.267,0.505,0.489,0.92,0.667
					c0.415,0.179,0.914,0.268,1.495,0.268c0.609,0,1.127-0.082,1.552-0.246c0.425-0.164,0.747-0.405,0.964-0.725
					c0.218-0.318,0.326-0.701,0.326-1.148c0-0.297-0.081-0.56-0.246-0.792C194.438,477.988,194.196,477.787,193.878,477.617z"/>
				<path id="XMLID_502_" style="fill:#C2C2C2;" d="M196.486,474.543c-0.238,0-0.431,0.081-0.579,0.243
					c-0.149,0.162-0.222,0.404-0.222,0.724v4.636c0,0.316,0.073,0.56,0.222,0.73c0.148,0.17,0.341,0.255,0.579,0.255
					c0.238,0,0.433-0.083,0.588-0.249c0.154-0.166,0.232-0.412,0.232-0.736v-4.683c0-0.288-0.078-0.515-0.232-0.677
					C196.919,474.624,196.724,474.543,196.486,474.543z"/>
				<path id="XMLID_501_" style="fill:#C2C2C2;" d="M196.504,472.204c-0.217,0-0.409,0.073-0.573,0.223
					c-0.165,0.149-0.246,0.337-0.246,0.567c0,0.254,0.08,0.449,0.24,0.588c0.16,0.138,0.353,0.208,0.579,0.208
					c0.217,0,0.405-0.071,0.563-0.212c0.158-0.14,0.238-0.335,0.238-0.584c0-0.258-0.081-0.453-0.244-0.588
					C196.9,472.272,196.714,472.204,196.504,472.204z"/>
				<path id="XMLID_498_" style="fill:#C2C2C2;" d="M203.626,474.543c-0.217,0-0.396,0.077-0.535,0.231
					c-0.139,0.154-0.208,0.372-0.208,0.652v0.221c-0.289-0.376-0.602-0.651-0.938-0.829c-0.337-0.175-0.734-0.264-1.193-0.264
					c-0.384,0-0.736,0.068-1.056,0.204c-0.321,0.138-0.604,0.34-0.849,0.609c-0.245,0.268-0.433,0.599-0.566,0.991
					c-0.133,0.392-0.199,0.831-0.199,1.317c0,0.653,0.108,1.228,0.327,1.728c0.217,0.498,0.529,0.886,0.934,1.163
					c0.406,0.276,0.88,0.415,1.422,0.415c0.45,0,0.839-0.091,1.166-0.272c0.327-0.182,0.614-0.447,0.864-0.797
					c-0.008,0.531-0.02,0.916-0.036,1.155c-0.016,0.24-0.07,0.465-0.164,0.674c-0.093,0.209-0.255,0.373-0.486,0.489
					c-0.232,0.117-0.557,0.176-0.977,0.176c-0.205,0-0.387-0.02-0.545-0.057c-0.159-0.038-0.294-0.095-0.406-0.171
					c-0.112-0.078-0.216-0.171-0.309-0.28c-0.093-0.108-0.183-0.217-0.27-0.323c-0.178-0.21-0.386-0.315-0.624-0.315
					c-0.189,0-0.352,0.062-0.486,0.188c-0.135,0.123-0.202,0.284-0.202,0.482c0,0.262,0.119,0.516,0.356,0.764
					c0.238,0.247,0.576,0.448,1.014,0.605c0.439,0.155,0.938,0.233,1.496,0.233c0.609,0,1.119-0.061,1.528-0.184
					c0.409-0.122,0.741-0.311,0.994-0.563c0.253-0.254,0.438-0.574,0.551-0.961c0.115-0.389,0.173-0.852,0.173-1.39v-4.706
					c0-0.384-0.051-0.678-0.155-0.882C204.146,474.646,203.938,474.543,203.626,474.543z M202.6,478.908
					c-0.151,0.291-0.346,0.508-0.586,0.653c-0.239,0.144-0.493,0.217-0.762,0.217c-0.455,0-0.826-0.168-1.113-0.505
					c-0.287-0.336-0.431-0.834-0.431-1.49c0-0.648,0.139-1.149,0.419-1.501c0.279-0.352,0.649-0.528,1.113-0.528
					c0.475,0,0.858,0.184,1.148,0.553c0.291,0.367,0.437,0.882,0.437,1.542C202.825,478.265,202.749,478.617,202.6,478.908z"/>
				<path id="XMLID_497_" style="fill:#C2C2C2;" d="M210.978,475.61c-0.165-0.339-0.418-0.602-0.753-0.788
					c-0.337-0.187-0.718-0.279-1.146-0.279c-0.439,0-0.828,0.088-1.166,0.264c-0.338,0.177-0.65,0.452-0.935,0.828v-0.195
					c0-0.193-0.034-0.358-0.104-0.493c-0.069-0.134-0.162-0.234-0.276-0.302c-0.114-0.068-0.244-0.102-0.387-0.102
					c-0.233,0-0.416,0.076-0.552,0.229c-0.134,0.152-0.201,0.383-0.201,0.691v4.683c0,0.316,0.076,0.56,0.226,0.73
					c0.15,0.17,0.342,0.255,0.576,0.255c0.241,0,0.438-0.082,0.59-0.246c0.152-0.164,0.228-0.411,0.228-0.739v-2.03
					c0-0.66,0.04-1.11,0.119-1.353c0.11-0.3,0.284-0.537,0.522-0.71c0.237-0.172,0.5-0.258,0.788-0.258
					c0.444,0,0.74,0.143,0.888,0.425c0.148,0.282,0.223,0.691,0.223,1.226v2.7c0,0.316,0.074,0.56,0.226,0.73
					c0.15,0.17,0.346,0.255,0.587,0.255c0.238,0,0.431-0.083,0.578-0.249c0.149-0.166,0.224-0.412,0.224-0.736v-3.016
					c0-0.357-0.017-0.648-0.048-0.878C211.155,476.023,211.085,475.809,210.978,475.61z"/>
				<path id="XMLID_494_" style="fill:#C2C2C2;" d="M217.821,478.054c0.233-0.122,0.35-0.385,0.35-0.793
					c0-0.438-0.113-0.87-0.338-1.294c-0.226-0.423-0.565-0.769-1.019-1.035c-0.453-0.268-0.996-0.399-1.628-0.399
					c-0.487,0-0.93,0.077-1.33,0.233c-0.4,0.156-0.736,0.381-1.009,0.674c-0.273,0.293-0.481,0.643-0.624,1.054
					c-0.142,0.409-0.213,0.853-0.213,1.332c0,1.017,0.289,1.822,0.866,2.415c0.578,0.593,1.387,0.891,2.428,0.891
					c0.455,0,0.858-0.06,1.208-0.178c0.351-0.12,0.64-0.268,0.872-0.448c0.232-0.181,0.405-0.368,0.52-0.565
					c0.114-0.196,0.172-0.366,0.172-0.514c0-0.166-0.051-0.294-0.154-0.386c-0.103-0.09-0.238-0.137-0.404-0.137
					c-0.154,0-0.273,0.036-0.356,0.107c-0.201,0.19-0.366,0.34-0.492,0.451c-0.128,0.111-0.266,0.216-0.415,0.313
					c-0.151,0.098-0.307,0.167-0.466,0.214c-0.161,0.044-0.338,0.067-0.532,0.067c-0.288,0-0.553-0.07-0.792-0.213
					c-0.239-0.143-0.431-0.355-0.575-0.636c-0.145-0.281-0.219-0.605-0.223-0.974h3.169
					C217.26,478.234,217.588,478.174,217.821,478.054z M213.666,477.315c0.056-0.547,0.212-0.96,0.471-1.238
					c0.259-0.28,0.591-0.418,0.995-0.418c0.423,0,0.765,0.137,1.024,0.411c0.259,0.275,0.409,0.69,0.448,1.245H213.666z"/>
				<path id="XMLID_491_" style="fill:#C2C2C2;" d="M224.206,472.134c-0.245,0-0.434,0.085-0.567,0.255
					c-0.132,0.17-0.199,0.421-0.199,0.753v2.393c-0.304-0.332-0.617-0.579-0.938-0.739c-0.32-0.159-0.714-0.24-1.181-0.24
					c-0.808,0-1.458,0.283-1.953,0.849c-0.495,0.566-0.741,1.355-0.741,2.369c0,0.479,0.062,0.923,0.187,1.335
					c0.125,0.412,0.308,0.77,0.549,1.074c0.241,0.305,0.527,0.539,0.857,0.703c0.33,0.164,0.689,0.246,1.077,0.246
					c0.293,0,0.563-0.04,0.81-0.122c0.248-0.08,0.476-0.199,0.689-0.356c0.211-0.155,0.426-0.358,0.643-0.607v0.16
					c0,0.297,0.072,0.525,0.217,0.685c0.145,0.16,0.328,0.24,0.549,0.24c0.226,0,0.41-0.077,0.552-0.231
					c0.143-0.154,0.213-0.386,0.213-0.694v-7.147c0-0.305-0.065-0.534-0.199-0.69C224.641,472.212,224.452,472.134,224.206,472.134z
					 M223.141,478.975c-0.14,0.306-0.328,0.533-0.564,0.682c-0.235,0.148-0.495,0.223-0.781,0.223c-0.281,0-0.54-0.078-0.776-0.236
					c-0.238-0.154-0.425-0.387-0.562-0.695c-0.137-0.31-0.205-0.683-0.205-1.122c0-0.415,0.064-0.78,0.193-1.096
					c0.129-0.314,0.31-0.556,0.543-0.724c0.233-0.168,0.499-0.252,0.795-0.252c0.285,0,0.547,0.082,0.787,0.245
					c0.239,0.165,0.43,0.402,0.57,0.713c0.14,0.311,0.21,0.682,0.21,1.113C223.352,478.283,223.281,478.667,223.141,478.975z"/>
				<path id="XMLID_488_" style="fill:#C2C2C2;" d="M233.586,474.938c-0.406-0.255-0.877-0.383-1.415-0.383
					c-0.467,0-0.859,0.084-1.175,0.252c-0.317,0.168-0.627,0.411-0.932,0.728v-2.476c0-0.297-0.068-0.524-0.202-0.686
					c-0.135-0.159-0.326-0.239-0.576-0.239c-0.237,0-0.423,0.084-0.555,0.252c-0.133,0.168-0.198,0.416-0.198,0.744v7.075
					c0,0.305,0.068,0.535,0.205,0.692c0.136,0.156,0.319,0.233,0.549,0.233c0.226,0,0.412-0.077,0.558-0.233
					c0.146-0.157,0.22-0.388,0.22-0.692v-0.16c0.178,0.205,0.322,0.36,0.43,0.463c0.109,0.103,0.241,0.203,0.395,0.3
					c0.154,0.098,0.341,0.175,0.561,0.234c0.22,0.06,0.454,0.089,0.704,0.089c0.407,0,0.781-0.082,1.119-0.246
					c0.338-0.164,0.626-0.397,0.864-0.698c0.237-0.3,0.418-0.655,0.543-1.064c0.124-0.41,0.187-0.859,0.187-1.35
					c0-0.665-0.112-1.241-0.336-1.725C234.305,475.564,233.991,475.193,233.586,474.938z M232.796,479.348
					c-0.295,0.354-0.646,0.531-1.053,0.531c-0.479,0-0.866-0.174-1.161-0.521c-0.295-0.346-0.442-0.841-0.442-1.486
					c0-0.44,0.069-0.818,0.207-1.136c0.138-0.319,0.328-0.563,0.57-0.73c0.24-0.168,0.516-0.252,0.825-0.252
					c0.3,0,0.563,0.084,0.789,0.252c0.225,0.168,0.399,0.406,0.521,0.716c0.123,0.308,0.184,0.677,0.184,1.103
					C233.238,478.486,233.09,478.993,232.796,479.348z"/>
				<path id="XMLID_487_" style="fill:#C2C2C2;" d="M240.529,474.641c-0.112-0.065-0.23-0.098-0.353-0.098
					c-0.171,0-0.302,0.029-0.395,0.09c-0.093,0.058-0.181,0.173-0.264,0.344c-0.083,0.17-0.176,0.406-0.279,0.705l-1.3,3.71
					l-1.371-3.988c-0.091-0.277-0.195-0.489-0.314-0.638c-0.119-0.148-0.295-0.223-0.529-0.223c-0.135,0-0.264,0.035-0.389,0.107
					c-0.124,0.07-0.222,0.166-0.294,0.285c-0.071,0.117-0.107,0.246-0.107,0.385c0,0.131,0.062,0.341,0.184,0.629l1.995,5.022
					l-0.148,0.362c-0.111,0.265-0.208,0.466-0.294,0.601c-0.085,0.139-0.181,0.234-0.288,0.289c-0.107,0.056-0.254,0.084-0.44,0.084
					c-0.075,0-0.163-0.013-0.266-0.036c-0.083-0.024-0.168-0.036-0.256-0.036c-0.221,0-0.388,0.051-0.501,0.151
					c-0.113,0.101-0.169,0.245-0.169,0.431c0,0.272,0.119,0.461,0.356,0.564c0.237,0.103,0.593,0.153,1.068,0.153
					c0.487,0,0.873-0.073,1.161-0.223c0.287-0.147,0.517-0.361,0.691-0.638c0.174-0.277,0.353-0.659,0.535-1.146l2.113-5.531
					c0.051-0.143,0.095-0.283,0.13-0.421c0.037-0.14,0.061-0.246,0.078-0.321c0-0.123-0.032-0.239-0.093-0.35
					C240.729,474.794,240.642,474.706,240.529,474.641z"/>
			</g>
			<g id="XMLID_450_">
				<g id="XMLID_465_">
					<path id="XMLID_485_" style="fill:#C2C2C2;" d="M262.93,472.129c-0.533,0-0.954,0.068-1.26,0.204
						c-0.308,0.137-0.527,0.354-0.654,0.652c-0.13,0.301-0.191,0.702-0.191,1.211v0.487h-0.387c-0.543,0-0.815,0.191-0.815,0.582
						c0,0.174,0.065,0.315,0.196,0.423c0.132,0.111,0.316,0.164,0.559,0.164h0.446v4.294c0,0.318,0.074,0.563,0.228,0.729
						c0.154,0.17,0.344,0.254,0.573,0.254c0.243,0,0.438-0.084,0.589-0.254c0.155-0.167,0.23-0.411,0.23-0.729v-4.294h0.396
						c0.291,0,0.517-0.035,0.681-0.107c0.166-0.071,0.245-0.24,0.245-0.503c0-0.373-0.307-0.559-0.926-0.559h-0.396v-0.387
						c0-0.321,0.043-0.567,0.122-0.739c0.087-0.172,0.273-0.26,0.565-0.26c0.108,0,0.241,0.014,0.39,0.034
						c0.155,0.026,0.268,0.038,0.33,0.038c0.134,0,0.252-0.055,0.348-0.16c0.102-0.107,0.15-0.235,0.15-0.385
						C264.35,472.358,263.879,472.129,262.93,472.129z"/>
					<path id="XMLID_484_" style="fill:#C2C2C2;" d="M268.089,474.795c-0.32-0.171-0.648-0.255-0.99-0.255
						c-0.342,0-0.61,0.084-0.818,0.255c-0.202,0.171-0.4,0.421-0.592,0.755c-0.015-0.334-0.08-0.584-0.199-0.755
						c-0.119-0.171-0.313-0.255-0.583-0.255c-0.525,0-0.788,0.364-0.788,1.093v4.514c0,0.323,0.078,0.568,0.226,0.732
						c0.149,0.169,0.34,0.251,0.579,0.251c0.236,0,0.432-0.081,0.586-0.247c0.15-0.163,0.233-0.41,0.233-0.736v-1.356
						c0-0.486,0.014-0.899,0.045-1.238c0.033-0.337,0.09-0.631,0.17-0.878c0.084-0.243,0.201-0.425,0.353-0.554
						c0.149-0.122,0.345-0.186,0.582-0.186c0.172,0,0.374,0.036,0.602,0.108c0.227,0.073,0.371,0.112,0.434,0.112
						c0.157,0,0.304-0.064,0.44-0.194c0.135-0.126,0.204-0.292,0.204-0.488C268.571,475.192,268.411,474.966,268.089,474.795z"/>
					<path id="XMLID_481_" style="fill:#C2C2C2;" d="M274.176,478.052c0.233-0.122,0.351-0.385,0.351-0.791
						c0-0.44-0.112-0.87-0.339-1.296c-0.222-0.423-0.565-0.77-1.018-1.033c-0.453-0.27-0.997-0.403-1.629-0.403
						c-0.488,0-0.931,0.078-1.329,0.232c-0.402,0.157-0.735,0.381-1.008,0.675c-0.275,0.295-0.484,0.644-0.624,1.055
						c-0.145,0.41-0.218,0.854-0.218,1.333c0,1.017,0.293,1.823,0.87,2.418c0.576,0.593,1.385,0.889,2.429,0.889
						c0.453,0,0.857-0.061,1.207-0.179c0.349-0.117,0.64-0.269,0.874-0.446c0.232-0.182,0.404-0.368,0.522-0.566
						c0.111-0.194,0.167-0.365,0.167-0.512c0-0.167-0.048-0.294-0.152-0.386c-0.104-0.093-0.237-0.139-0.405-0.139
						c-0.152,0-0.271,0.038-0.355,0.108c-0.202,0.189-0.367,0.34-0.493,0.449c-0.128,0.113-0.264,0.218-0.415,0.313
						c-0.15,0.097-0.307,0.17-0.466,0.213c-0.16,0.048-0.336,0.069-0.531,0.069c-0.29,0-0.552-0.07-0.792-0.212
						c-0.24-0.145-0.431-0.357-0.578-0.636c-0.145-0.28-0.216-0.606-0.222-0.974h3.171
						C273.615,478.233,273.942,478.173,274.176,478.052z M270.02,477.313c0.055-0.546,0.213-0.957,0.472-1.236
						c0.26-0.28,0.592-0.418,0.995-0.418c0.426,0,0.764,0.136,1.024,0.412c0.261,0.273,0.407,0.688,0.446,1.242H270.02z"/>
					<path id="XMLID_478_" style="fill:#C2C2C2;" d="M280.916,478.052c0.232-0.122,0.352-0.385,0.352-0.791
						c0-0.44-0.116-0.87-0.341-1.296c-0.222-0.423-0.564-0.77-1.013-1.033c-0.46-0.27-1.003-0.403-1.634-0.403
						c-0.486,0-0.932,0.078-1.33,0.232c-0.4,0.157-0.736,0.381-1.009,0.675c-0.273,0.295-0.48,0.644-0.622,1.055
						c-0.145,0.41-0.218,0.854-0.218,1.333c0,1.017,0.291,1.823,0.868,2.418c0.58,0.593,1.387,0.889,2.43,0.889
						c0.453,0,0.859-0.061,1.208-0.179c0.348-0.117,0.641-0.269,0.872-0.446c0.234-0.182,0.408-0.368,0.518-0.566
						c0.116-0.194,0.171-0.365,0.171-0.512c0-0.167-0.047-0.294-0.15-0.386c-0.104-0.093-0.238-0.139-0.406-0.139
						c-0.151,0-0.27,0.038-0.355,0.108c-0.202,0.189-0.367,0.34-0.492,0.449c-0.127,0.113-0.264,0.218-0.415,0.313
						c-0.152,0.097-0.307,0.17-0.469,0.213c-0.157,0.048-0.335,0.069-0.527,0.069c-0.291,0-0.556-0.07-0.795-0.212
						c-0.238-0.145-0.431-0.357-0.575-0.636c-0.144-0.28-0.218-0.606-0.222-0.974h3.17
						C280.354,478.233,280.682,478.173,280.916,478.052z M276.762,477.313c0.053-0.546,0.211-0.957,0.47-1.236
						c0.261-0.28,0.592-0.418,0.995-0.418c0.425,0,0.764,0.136,1.026,0.412c0.257,0.273,0.407,0.688,0.446,1.242H276.762z"/>
					<path id="XMLID_475_" style="fill:#C2C2C2;" d="M286.927,474.938c-0.42-0.257-0.883-0.387-1.379-0.387
						c-0.415,0-0.79,0.09-1.114,0.268c-0.331,0.176-0.648,0.452-0.952,0.827v-0.194c0-0.297-0.071-0.52-0.218-0.678
						c-0.144-0.155-0.329-0.233-0.56-0.233c-0.233,0-0.419,0.078-0.554,0.228c-0.133,0.154-0.199,0.382-0.199,0.691v6.995
						c0,0.354,0.051,0.62,0.145,0.807c0.102,0.183,0.301,0.274,0.607,0.274c0.517,0,0.777-0.358,0.777-1.068v-2.434
						c0.286,0.358,0.586,0.635,0.9,0.817c0.314,0.187,0.704,0.279,1.166,0.279c0.385,0,0.741-0.076,1.079-0.228
						c0.334-0.152,0.622-0.372,0.868-0.653c0.245-0.283,0.44-0.632,0.58-1.05c0.14-0.418,0.21-0.878,0.21-1.376
						c0-0.677-0.122-1.261-0.366-1.758C287.676,475.571,287.346,475.195,286.927,474.938z M286.45,478.94
						c-0.137,0.313-0.32,0.546-0.552,0.704c-0.229,0.153-0.48,0.233-0.748,0.233c-0.454,0-0.828-0.179-1.133-0.536
						c-0.307-0.358-0.46-0.862-0.46-1.504c0-0.687,0.155-1.204,0.462-1.558c0.307-0.35,0.685-0.527,1.131-0.527
						c0.281,0,0.54,0.083,0.77,0.247c0.229,0.163,0.411,0.398,0.542,0.705c0.13,0.306,0.196,0.674,0.196,1.101
						C286.658,478.248,286.589,478.627,286.45,478.94z"/>
					<path id="XMLID_474_" style="fill:#C2C2C2;" d="M289.9,474.54c-0.238,0-0.428,0.079-0.58,0.244
						c-0.146,0.163-0.222,0.403-0.222,0.722v4.642c0,0.313,0.076,0.555,0.222,0.729c0.152,0.17,0.342,0.254,0.58,0.254
						s0.432-0.082,0.588-0.251c0.154-0.164,0.231-0.409,0.231-0.731v-4.688c0-0.286-0.077-0.512-0.231-0.675
						C290.332,474.619,290.139,474.54,289.9,474.54z"/>
					<path id="XMLID_473_" style="fill:#C2C2C2;" d="M289.917,472.199c-0.217,0-0.407,0.076-0.571,0.223
						c-0.166,0.149-0.247,0.339-0.247,0.568c0,0.253,0.08,0.447,0.242,0.586c0.158,0.138,0.35,0.209,0.576,0.209
						c0.22,0,0.408-0.071,0.566-0.21c0.157-0.14,0.236-0.335,0.236-0.585c0-0.257-0.082-0.454-0.244-0.591
						C290.314,472.267,290.13,472.199,289.917,472.199z"/>
					<path id="XMLID_472_" style="fill:#C2C2C2;" d="M297.258,479.569l-1.662-2.614l0.861-0.788
						c0.438-0.395,0.658-0.714,0.658-0.951c0-0.192-0.068-0.354-0.2-0.483c-0.138-0.128-0.306-0.192-0.509-0.192
						c-0.169,0-0.313,0.043-0.432,0.13c-0.121,0.086-0.29,0.251-0.517,0.486l-1.822,1.913v-3.933c0-0.329-0.074-0.581-0.221-0.751
						c-0.147-0.171-0.344-0.257-0.593-0.257c-0.256,0-0.457,0.093-0.596,0.283c-0.136,0.188-0.207,0.462-0.207,0.82v6.914
						c0,0.323,0.073,0.568,0.215,0.732c0.141,0.169,0.339,0.251,0.588,0.251c0.213,0,0.405-0.084,0.566-0.254
						c0.164-0.167,0.247-0.406,0.247-0.719v-1.29l0.88-0.83l1.428,2.352c0.182,0.278,0.329,0.472,0.435,0.58
						c0.107,0.109,0.261,0.16,0.459,0.16c0.226,0,0.412-0.073,0.553-0.222c0.142-0.15,0.214-0.351,0.214-0.609
						c0-0.089-0.029-0.189-0.082-0.288C297.47,479.909,297.379,479.765,297.258,479.569z"/>
					<path id="XMLID_471_" style="fill:#C2C2C2;" d="M299.45,479.343c-0.251,0-0.459,0.087-0.63,0.262
						c-0.171,0.173-0.257,0.381-0.257,0.622c0,0.287,0.091,0.51,0.269,0.665c0.179,0.159,0.389,0.238,0.633,0.238
						c0.237,0,0.444-0.079,0.624-0.241c0.175-0.157,0.264-0.38,0.264-0.662c0-0.243-0.089-0.454-0.264-0.626
						C299.909,479.43,299.698,479.343,299.45,479.343z"/>
					<path id="XMLID_470_" style="fill:#C2C2C2;" d="M306.835,478.416c-0.166,0-0.308,0.055-0.422,0.156
						c-0.113,0.104-0.219,0.245-0.318,0.427c-0.177,0.31-0.381,0.538-0.616,0.69c-0.23,0.149-0.509,0.225-0.834,0.225
						c-0.24,0-0.463-0.045-0.666-0.141c-0.201-0.094-0.372-0.229-0.516-0.409c-0.144-0.18-0.252-0.398-0.325-0.652
						c-0.075-0.256-0.114-0.537-0.114-0.842c0-0.646,0.147-1.161,0.44-1.533c0.293-0.375,0.682-0.561,1.158-0.561
						c0.333,0,0.606,0.075,0.82,0.227c0.219,0.147,0.425,0.376,0.623,0.674c0.108,0.158,0.209,0.27,0.299,0.339
						c0.09,0.069,0.201,0.104,0.338,0.104c0.202,0,0.377-0.068,0.524-0.203c0.143-0.135,0.214-0.3,0.214-0.491
						c0-0.192-0.062-0.397-0.192-0.617c-0.127-0.218-0.315-0.424-0.556-0.62c-0.245-0.192-0.54-0.352-0.891-0.474
						c-0.353-0.124-0.736-0.185-1.156-0.185c-0.674,0-1.26,0.139-1.747,0.419c-0.485,0.278-0.858,0.673-1.113,1.183
						c-0.259,0.511-0.387,1.098-0.387,1.765c0,0.982,0.281,1.765,0.841,2.35c0.563,0.582,1.345,0.876,2.349,0.876
						c0.469,0,0.894-0.065,1.269-0.191c0.377-0.126,0.688-0.295,0.935-0.503c0.248-0.207,0.434-0.425,0.553-0.655
						c0.122-0.23,0.183-0.446,0.183-0.647c0-0.169-0.066-0.331-0.198-0.481C307.198,478.493,307.033,478.416,306.835,478.416z"/>
					<path id="XMLID_467_" style="fill:#C2C2C2;" d="M313.646,475.453c-0.288-0.291-0.628-0.518-1.026-0.675
						c-0.4-0.16-0.847-0.238-1.336-0.238c-0.482,0-0.924,0.078-1.326,0.233c-0.398,0.158-0.737,0.38-1.02,0.669
						c-0.281,0.288-0.498,0.637-0.648,1.045c-0.146,0.408-0.225,0.857-0.225,1.349c0,0.485,0.076,0.93,0.22,1.332
						c0.151,0.401,0.369,0.75,0.657,1.048c0.284,0.292,0.626,0.521,1.016,0.676c0.393,0.159,0.835,0.239,1.326,0.239
						c0.492,0,0.937-0.08,1.336-0.234c0.394-0.157,0.735-0.382,1.02-0.675c0.286-0.291,0.502-0.642,0.656-1.05
						c0.145-0.408,0.222-0.854,0.222-1.336c0-0.488-0.075-0.932-0.221-1.339C314.148,476.096,313.933,475.749,313.646,475.453z
						 M312.455,479.368c-0.29,0.373-0.682,0.558-1.171,0.558c-0.324,0-0.604-0.086-0.846-0.253c-0.24-0.168-0.424-0.409-0.554-0.729
						c-0.129-0.316-0.193-0.685-0.193-1.108c0-0.428,0.066-0.803,0.197-1.124c0.13-0.321,0.314-0.564,0.556-0.728
						c0.242-0.163,0.522-0.245,0.84-0.245c0.489,0,0.881,0.182,1.171,0.555c0.289,0.367,0.436,0.881,0.436,1.542
						C312.891,478.486,312.744,478.999,312.455,479.368z"/>
					<path id="XMLID_466_" style="fill:#C2C2C2;" d="M323.569,474.814c-0.32-0.173-0.705-0.263-1.146-0.263
						c-0.38,0-0.726,0.081-1.038,0.241c-0.314,0.161-0.607,0.408-0.882,0.738c-0.191-0.326-0.431-0.572-0.725-0.735
						c-0.292-0.162-0.642-0.244-1.048-0.244c-0.395,0-0.748,0.079-1.07,0.241c-0.319,0.156-0.62,0.403-0.903,0.738v-0.153
						c0-0.261-0.073-0.466-0.221-0.616c-0.15-0.145-0.335-0.221-0.558-0.221c-0.226,0-0.412,0.078-0.556,0.238
						c-0.14,0.157-0.21,0.389-0.21,0.694v4.636c0,0.337,0.078,0.592,0.235,0.765c0.156,0.171,0.358,0.258,0.604,0.258
						c0.248,0,0.447-0.087,0.603-0.258c0.149-0.173,0.227-0.428,0.227-0.765v-2.189c0-0.683,0.086-1.206,0.253-1.566
						c0.169-0.369,0.517-0.55,1.048-0.55c0.264,0,0.459,0.071,0.582,0.22c0.121,0.142,0.197,0.33,0.226,0.552
						c0.027,0.226,0.04,0.544,0.04,0.952v2.581c0,0.342,0.078,0.594,0.232,0.768c0.148,0.17,0.35,0.255,0.595,0.255
						c0.254,0,0.454-0.085,0.61-0.255c0.156-0.174,0.23-0.426,0.23-0.768v-2.153c0-0.694,0.063-1.178,0.178-1.452
						c0.109-0.209,0.259-0.383,0.451-0.508c0.191-0.125,0.395-0.191,0.608-0.191c0.264,0,0.463,0.071,0.596,0.215
						c0.128,0.142,0.209,0.318,0.238,0.528c0.029,0.21,0.044,0.486,0.044,0.837v2.725c0,0.337,0.078,0.592,0.234,0.765
						c0.157,0.171,0.356,0.258,0.604,0.258c0.252,0,0.458-0.085,0.611-0.255c0.154-0.174,0.229-0.426,0.229-0.768v-3.163
						c0-0.629-0.068-1.091-0.206-1.386C324.128,475.237,323.889,474.987,323.569,474.814z"/>
				</g>
				<g id="XMLID_451_">
					<path id="XMLID_464_" style="fill:#C2C2C2;" d="M245.273,477.443c-0.001-0.003-0.001-0.006-0.001-0.011
						C245.272,477.438,245.272,477.44,245.273,477.443z"/>
					<path id="XMLID_463_" style="fill:#C2C2C2;" d="M245.355,477.961c0.001,0,0.001,0,0.001,0c-0.03-0.146-0.055-0.294-0.073-0.438
						C245.301,477.669,245.326,477.816,245.355,477.961z"/>
					<path id="XMLID_462_" style="fill:#C2C2C2;" d="M245.891,479.466c-0.003-0.007-0.006-0.014-0.01-0.021
						C245.885,479.452,245.888,479.459,245.891,479.466z"/>
					<path id="XMLID_461_" style="fill:#C2C2C2;" d="M245.84,479.365c-0.014-0.027-0.027-0.056-0.04-0.083
						C245.812,479.311,245.826,479.338,245.84,479.365z"/>
					<path id="XMLID_460_" style="fill:#C2C2C2;" d="M245.505,478.541c0.08,0.25,0.175,0.492,0.286,0.724
						c-0.113-0.236-0.206-0.478-0.284-0.724H245.505z"/>
					<path id="XMLID_459_" style="fill:#C2C2C2;" d="M250.736,470.682l-0.076-0.26c0.299-0.063,0.523-0.329,0.523-0.647
						c0-0.363-0.296-0.659-0.66-0.659c-0.365,0-0.66,0.296-0.66,0.659c0,0.317,0.225,0.584,0.522,0.647l0.084,0.289
						c-1.021,0.141-1.834,0.539-1.834,0.539l0.144,0.44c0.617-0.206,1.153-0.331,1.64-0.383c0.476-0.051,0.833-0.073,1.126-0.073
						c0.313,0,0.545,0.025,0.81,0.069l0.075-0.476C252.43,470.828,251.697,470.603,250.736,470.682z"/>
					<path id="XMLID_458_" style="fill:#C2C2C2;" d="M245.453,473.189c-0.017,0.023-0.497,0.465-0.876,1.279
						c-0.016-0.025-0.035-0.051-0.056-0.074c-0.114-0.124-0.272-0.188-0.474-0.184c-0.003,0-0.006,0-0.01,0
						c-0.124,0-0.21-0.042-0.266-0.093c0.056-0.07,0.089-0.16,0.089-0.258c0-0.23-0.188-0.419-0.419-0.419
						c-0.23,0-0.417,0.189-0.417,0.419c0,0.231,0.188,0.417,0.417,0.417c0.037,0,0.071-0.005,0.105-0.012
						c0.102,0.113,0.266,0.214,0.504,0.209c0.124-0.002,0.214,0.03,0.273,0.097c0.07,0.075,0.093,0.185,0.1,0.267
						c-0.001,0.002-0.001,0.004-0.002,0.004c-0.272,0.743-0.194,1.668-0.194,1.668l0.661,0.025c0.014-0.336,0.061-0.925,0.232-1.393
						c0.329-0.906,0.741-1.472,0.757-1.496l0.004-0.005c0.024-0.031,0.047-0.06,0.071-0.089l-0.196-0.142L245.453,473.189z"/>
					<path id="XMLID_457_" style="fill:#C2C2C2;" d="M257.294,471.787c-0.23,0-0.419,0.186-0.419,0.417
						c0,0.037,0.006,0.071,0.016,0.104c-0.115,0.104-0.215,0.267-0.211,0.506c0.002,0.123-0.03,0.213-0.097,0.273
						c-0.053,0.047-0.119,0.071-0.185,0.087c-0.492-0.689-1.098-1.109-1.098-1.109l-0.474,0.509c0.358,0.326,0.725,0.734,1.08,1.244
						c0.246,0.352,0.499,0.806,0.71,1.258l0.64-0.304c0,0-0.292-0.722-0.703-1.369c0.071-0.025,0.143-0.063,0.206-0.12
						c0.126-0.113,0.188-0.272,0.184-0.474c-0.001-0.13,0.041-0.218,0.093-0.275c0.071,0.054,0.16,0.089,0.258,0.089
						c0.232,0,0.418-0.188,0.418-0.419C257.712,471.974,257.525,471.787,257.294,471.787z"/>
					<path id="XMLID_456_" style="fill:#C2C2C2;" d="M255.633,477.537c-0.88,0.429-2.33,0.996-4.236,1.262
						c-0.749,0.104-1.475,0.143-2.143,0.143c-0.869,0-1.638-0.064-2.227-0.14c-0.672-0.084-1.198-0.188-1.52-0.261
						c0.078,0.245,0.171,0.487,0.284,0.724c0.002,0.006,0.005,0.013,0.008,0.018c0.013,0.027,0.027,0.056,0.04,0.083
						c0.014,0.027,0.027,0.055,0.041,0.079c0.004,0.008,0.007,0.015,0.01,0.021c0.19,0.357,0.417,0.684,0.676,0.968
						c0.899,0.984,1.816,1.139,1.825,1.141l0.015,0.002l0.013,0.005c0.009,0.003,0.821,0.265,2.057,0.265
						c1.215,0,2.409-0.244,3.545-0.729c0.842-0.431,1.639-1.085,2.033-1.668c0.306-0.452,0.526-0.934,0.656-1.434
						c0.069-0.266,0.124-0.692,0.092-1.141C256.555,477.042,256.163,477.279,255.633,477.537z"/>
					<path id="XMLID_452_" style="fill:#C2C2C2;" d="M252.322,471.655c-0.265-0.044-0.477-0.068-0.777-0.068
						c-0.279,0-0.626,0.022-1.088,0.07c-0.465,0.049-0.982,0.171-1.583,0.373c-0.842,0.282-1.604,0.725-2.204,1.28l-0.02,0.019
						c-0.089,0.081-0.275,0.254-0.488,0.525c-0.025,0.037-0.408,0.578-0.709,1.408c-0.226,0.621-0.216,1.526-0.216,1.537v0.001
						c0,0.212,0.013,0.423,0.036,0.632c0,0.005,0,0.008,0.001,0.011c0.003,0.027,0.007,0.053,0.01,0.08
						c0.019,0.144,0.043,0.291,0.074,0.438c0.438,0.112,3.048,0.721,5.967,0.314c1.829-0.254,3.218-0.795,4.061-1.204
						c0.701-0.34,1.151-0.647,1.325-0.773c-0.173-0.643-0.651-1.65-1.089-2.278C254.367,472.228,253.016,471.77,252.322,471.655z
						 M248.679,476.914c-0.972,0-1.759-0.787-1.759-1.76c0-0.972,0.788-1.76,1.759-1.76c0.973,0,1.761,0.788,1.761,1.76
						C250.439,476.127,249.651,476.914,248.679,476.914z M253.828,475.617c-0.601,0-1.088-0.489-1.088-1.09
						c0-0.603,0.487-1.09,1.088-1.09s1.09,0.487,1.09,1.09C254.918,475.128,254.429,475.617,253.828,475.617z"/>
				</g>
			</g>
		</g>
	</g>
</g>
</svg>
